<svg xmlns="http://www.w3.org/2000/svg" xmlns:xlink="http://www.w3.org/1999/xlink" width="500" zoomAndPan="magnify" viewBox="0 0 375 374.999991" height="500" preserveAspectRatio="xMidYMid meet" version="1.0"><defs><clipPath id="fce8a03565"><path d="M 69.558594 64 L 241 64 L 241 311 L 69.558594 311 Z M 69.558594 64 " clip-rule="nonzero"/></clipPath><clipPath id="a65de9ae74"><path d="M 139.585938 145.296875 L 305.335938 145.296875 L 305.335938 311.046875 L 139.585938 311.046875 Z M 139.585938 145.296875 " clip-rule="nonzero"/></clipPath></defs><g clip-path="url(#fce8a03565)"><path fill="#000000" d="M 87.710938 309.5625 C 85.21875 309.136719 80.179688 305.496094 76.386719 301.382812 L 69.558594 293.976562 L 69.558594 278.9375 C 69.558594 235.992188 75.460938 110.589844 77.671875 106.652344 C 79.367188 103.621094 87.589844 100.414062 150.527344 78.238281 C 172.460938 70.507812 192.34375 64.1875 194.710938 64.1875 C 197.140625 64.1875 201.792969 66.566406 205.414062 69.667969 C 211.871094 75.191406 223.203125 79.277344 232.070312 79.277344 C 241.132812 79.277344 241.304688 80.417969 239.179688 125.851562 C 238.113281 148.652344 236.382812 185.792969 235.339844 208.386719 C 234.070312 235.8125 232.695312 250.949219 231.203125 253.925781 C 229.738281 256.847656 226.203125 259.40625 220.964844 261.335938 C 190.078125 272.730469 114.816406 303.328125 110.914062 306.078125 C 106.109375 309.46875 95.996094 310.988281 87.707031 309.5625 Z M 107.039062 299.773438 L 115.683594 297.261719 L 115.683594 259.199219 L 104.453125 260 C 96.328125 260.582031 91.285156 260.027344 86.210938 257.996094 C 82.355469 256.457031 78.816406 255.582031 78.339844 256.054688 C 76.996094 257.398438 75.710938 288.105469 76.816406 292.488281 C 78.097656 297.566406 85.652344 302.183594 92.78125 302.238281 C 95.867188 302.261719 102.28125 301.152344 107.039062 299.773438 Z M 173.210938 272.828125 C 200.609375 262.164062 223.6875 252.785156 224.5 251.988281 C 225.890625 250.625 227.957031 218 232.300781 129 C 233.328125 107.929688 233.855469 90.378906 233.472656 90 C 233.09375 89.621094 209.828125 96.347656 181.777344 104.953125 L 130.777344 120.597656 L 129.675781 131.617188 C 128.636719 141.972656 127.179688 167.324219 123.140625 245.273438 C 122.207031 263.257812 121.003906 281.175781 120.46875 285.097656 C 119.804688 289.957031 120.113281 292.222656 121.445312 292.222656 C 122.519531 292.222656 145.816406 283.496094 173.210938 272.828125 Z M 112.507812 250.988281 C 116.402344 249.941406 116.859375 246.574219 119.261719 201.117188 L 120.402344 179.59375 L 112.171875 180.953125 C 100.539062 182.871094 93.742188 182.253906 86.382812 178.613281 L 79.988281 175.453125 L 78.78125 208.453125 C 78.113281 226.609375 78.046875 242.960938 78.632812 244.800781 C 79.214844 246.640625 81.375 248.957031 83.429688 249.949219 C 87.421875 251.875 106.640625 252.558594 112.507812 250.984375 Z M 112.132812 172.890625 C 115.929688 171.8125 119.511719 170.492188 120.09375 169.957031 C 120.675781 169.421875 121.679688 158.125 122.320312 144.859375 C 123.390625 122.777344 123.25 120.824219 120.699219 121.804688 C 119.167969 122.394531 113.78125 123.359375 108.734375 123.953125 C 101.164062 124.84375 98.105469 124.351562 91.269531 121.152344 C 86.714844 119.015625 82.679688 117.589844 82.304688 117.976562 C 81.933594 118.363281 81.371094 129.324219 81.0625 142.339844 C 80.464844 167.4375 81.144531 170.15625 88.785156 173.253906 C 93.804688 175.289062 104.261719 175.125 112.132812 172.890625 Z M 156.210938 98.300781 C 190.648438 85.078125 207.089844 77.972656 207.089844 76.324219 C 207.089844 74.691406 206.121094 74.257812 204.15625 75.011719 C 141.113281 99.1875 100.242188 115.277344 98.992188 116.402344 C 93.796875 121.09375 111.199219 115.585938 156.210938 98.300781 Z M 175.644531 100.730469 C 201.242188 92.183594 222.1875 84.617188 222.1875 83.914062 C 222.1875 80.019531 206.011719 84.261719 168.9375 97.871094 C 146.105469 106.253906 126.289062 113.777344 124.90625 114.589844 C 116.863281 119.300781 134.136719 114.582031 175.644531 100.730469 Z M 135.808594 96.039062 L 186.542969 77.253906 C 194.15625 74.433594 200.382812 71.417969 200.382812 70.554688 C 200.382812 69.695312 198.683594 69.519531 196.609375 70.167969 C 130.207031 90.941406 84.835938 106.128906 83.707031 107.953125 C 83.144531 108.863281 83.570312 110.671875 84.652344 111.976562 C 86.339844 114.003906 87.5 114.011719 92.765625 112.019531 C 96.144531 110.742188 115.511719 103.550781 135.808594 96.042969 Z M 135.808594 96.039062 " fill-opacity="1" fill-rule="nonzero"/></g><g clip-path="url(#a65de9ae74)"><path fill="#000000" d="M 222.460938 311.046875 C 268.246094 311.046875 305.332031 273.957031 305.332031 228.171875 C 305.332031 182.382812 268.246094 145.296875 222.460938 145.296875 C 176.671875 145.296875 139.585938 182.382812 139.585938 228.171875 C 139.585938 273.957031 176.671875 311.046875 222.460938 311.046875 Z M 222.460938 311.046875 " fill-opacity="1" fill-rule="evenodd"/></g><path fill="#fe7554" d="M 228.835938 180.324219 C 228.835938 178.597656 227.40625 177.171875 225.613281 177.171875 L 219.304688 177.171875 C 217.445312 177.171875 216.085938 178.597656 216.085938 180.324219 L 216.085938 221.796875 L 174.613281 221.796875 C 172.886719 221.796875 171.460938 223.222656 171.460938 225.015625 L 171.460938 231.324219 C 171.460938 233.183594 172.886719 234.546875 174.613281 234.546875 L 216.085938 234.546875 L 216.085938 276.015625 C 216.085938 277.742188 217.511719 279.171875 219.304688 279.171875 L 225.613281 279.171875 C 227.472656 279.171875 228.835938 277.742188 228.835938 276.015625 L 228.835938 234.546875 L 270.304688 234.546875 C 272.03125 234.546875 273.460938 233.117188 273.460938 231.324219 L 273.460938 225.015625 C 273.460938 223.15625 272.03125 221.796875 270.304688 221.796875 L 228.835938 221.796875 Z M 228.835938 180.324219 " fill-opacity="1" fill-rule="evenodd"/></svg>