<svg xmlns="http://www.w3.org/2000/svg" xmlns:xlink="http://www.w3.org/1999/xlink" width="500" zoomAndPan="magnify" viewBox="0 0 375 374.999991" height="500" preserveAspectRatio="xMidYMid meet" version="1.0"><defs><clipPath id="86a9096375"><path d="M 98.128906 175 L 276.628906 175 L 276.628906 270.660156 L 98.128906 270.660156 Z M 98.128906 175 " clip-rule="nonzero"/></clipPath><clipPath id="31fe5c88ba"><path d="M 122 104.160156 L 254 104.160156 L 254 164 L 122 164 Z M 122 104.160156 " clip-rule="nonzero"/></clipPath></defs><g clip-path="url(#86a9096375)"><path fill="#000000" d="M 270.070312 175.515625 L 104.59375 175.515625 C 104.203125 175.515625 103.816406 175.554688 103.433594 175.632812 C 103.050781 175.707031 102.679688 175.820312 102.320312 175.96875 C 101.957031 176.117188 101.617188 176.300781 101.292969 176.519531 C 100.96875 176.734375 100.667969 176.984375 100.390625 177.257812 C 100.113281 177.535156 99.867188 177.835938 99.652344 178.160156 C 99.433594 178.484375 99.25 178.828125 99.101562 179.1875 C 98.953125 179.546875 98.839844 179.921875 98.765625 180.304688 C 98.6875 180.6875 98.648438 181.074219 98.648438 181.464844 L 98.648438 193.355469 C 98.648438 193.746094 98.6875 194.132812 98.765625 194.515625 C 98.839844 194.898438 98.953125 195.269531 99.101562 195.632812 C 99.25 195.992188 99.433594 196.335938 99.652344 196.660156 C 99.867188 196.984375 100.113281 197.285156 100.390625 197.5625 C 100.667969 197.835938 100.96875 198.082031 101.292969 198.300781 C 101.617188 198.515625 101.957031 198.699219 102.320312 198.851562 C 102.679688 199 103.050781 199.113281 103.433594 199.1875 C 103.816406 199.265625 104.203125 199.300781 104.59375 199.300781 L 105.574219 199.300781 C 106.285156 199.300781 106.972656 199.417969 107.640625 199.648438 C 108.3125 199.878906 108.925781 200.210938 109.484375 200.648438 C 110.039062 201.085938 110.511719 201.601562 110.898438 202.195312 C 111.28125 202.789062 111.558594 203.429688 111.726562 204.121094 L 125.402344 258.914062 C 125.601562 259.753906 125.875 260.570312 126.210938 261.367188 C 126.550781 262.160156 126.949219 262.921875 127.414062 263.648438 C 127.878906 264.375 128.402344 265.058594 128.980469 265.699219 C 129.5625 266.339844 130.1875 266.929688 130.867188 267.464844 C 131.542969 268 132.257812 268.476562 133.015625 268.890625 C 133.773438 269.304688 134.558594 269.65625 135.375 269.941406 C 136.1875 270.226562 137.019531 270.441406 137.871094 270.585938 C 138.722656 270.730469 139.578125 270.804688 140.441406 270.808594 L 235.175781 270.808594 C 236.039062 270.804688 236.894531 270.730469 237.746094 270.585938 C 238.597656 270.441406 239.429688 270.226562 240.242188 269.941406 C 241.058594 269.65625 241.84375 269.304688 242.601562 268.890625 C 243.355469 268.476562 244.074219 268 244.75 267.464844 C 245.429688 266.929688 246.054688 266.339844 246.636719 265.699219 C 247.214844 265.058594 247.734375 264.375 248.199219 263.648438 C 248.664062 262.921875 249.066406 262.160156 249.40625 261.367188 C 249.742188 260.570312 250.011719 259.753906 250.214844 258.914062 L 263.917969 204.121094 C 264.085938 203.429688 264.363281 202.789062 264.75 202.195312 C 265.132812 201.601562 265.605469 201.085938 266.164062 200.648438 C 266.71875 200.210938 267.335938 199.878906 268.003906 199.648438 C 268.671875 199.417969 269.363281 199.300781 270.070312 199.300781 C 270.460938 199.300781 270.847656 199.265625 271.230469 199.1875 C 271.613281 199.113281 271.984375 199 272.347656 198.851562 C 272.707031 198.699219 273.050781 198.515625 273.375 198.300781 C 273.699219 198.082031 274 197.835938 274.273438 197.5625 C 274.550781 197.285156 274.796875 196.984375 275.015625 196.660156 C 275.230469 196.335938 275.414062 195.992188 275.5625 195.632812 C 275.710938 195.269531 275.824219 194.898438 275.902344 194.515625 C 275.976562 194.132812 276.015625 193.746094 276.015625 193.355469 L 276.015625 181.464844 C 276.015625 181.074219 275.976562 180.6875 275.902344 180.304688 C 275.824219 179.921875 275.710938 179.546875 275.5625 179.1875 C 275.414062 178.828125 275.230469 178.484375 275.015625 178.160156 C 274.796875 177.835938 274.550781 177.535156 274.273438 177.257812 C 274 176.984375 273.699219 176.734375 273.375 176.519531 C 273.050781 176.300781 272.707031 176.117188 272.347656 175.96875 C 271.984375 175.820312 271.613281 175.707031 271.230469 175.632812 C 270.847656 175.554688 270.460938 175.515625 270.070312 175.515625 Z M 146.207031 240.925781 C 146.207031 241.316406 146.171875 241.703125 146.09375 242.085938 C 146.019531 242.472656 145.90625 242.84375 145.757812 243.203125 C 145.605469 243.5625 145.421875 243.90625 145.207031 244.230469 C 144.988281 244.554688 144.742188 244.855469 144.46875 245.132812 C 144.191406 245.410156 143.890625 245.65625 143.566406 245.871094 C 143.242188 246.089844 142.898438 246.273438 142.539062 246.421875 C 142.179688 246.570312 141.804688 246.683594 141.421875 246.761719 C 141.039062 246.835938 140.652344 246.875 140.265625 246.875 C 139.875 246.875 139.488281 246.835938 139.105469 246.761719 C 138.722656 246.683594 138.347656 246.570312 137.988281 246.421875 C 137.628906 246.273438 137.285156 246.089844 136.960938 245.871094 C 136.636719 245.65625 136.335938 245.410156 136.058594 245.132812 C 135.785156 244.855469 135.539062 244.554688 135.320312 244.230469 C 135.105469 243.90625 134.921875 243.5625 134.773438 243.203125 C 134.621094 242.84375 134.507812 242.472656 134.433594 242.085938 C 134.355469 241.703125 134.320312 241.316406 134.320312 240.925781 L 134.320312 205.25 C 134.320312 204.859375 134.355469 204.472656 134.433594 204.089844 C 134.507812 203.707031 134.621094 203.335938 134.773438 202.972656 C 134.921875 202.613281 135.105469 202.269531 135.320312 201.945312 C 135.539062 201.621094 135.785156 201.320312 136.058594 201.042969 C 136.335938 200.769531 136.636719 200.523438 136.960938 200.304688 C 137.285156 200.089844 137.628906 199.90625 137.988281 199.753906 C 138.347656 199.605469 138.722656 199.492188 139.105469 199.417969 C 139.488281 199.339844 139.875 199.300781 140.265625 199.300781 C 140.652344 199.300781 141.039062 199.339844 141.421875 199.417969 C 141.804688 199.492188 142.179688 199.605469 142.539062 199.753906 C 142.898438 199.90625 143.242188 200.089844 143.566406 200.304688 C 143.890625 200.523438 144.191406 200.769531 144.46875 201.042969 C 144.742188 201.320312 144.988281 201.621094 145.207031 201.945312 C 145.421875 202.269531 145.605469 202.613281 145.757812 202.972656 C 145.90625 203.335938 146.019531 203.707031 146.09375 204.089844 C 146.171875 204.472656 146.207031 204.859375 146.207031 205.25 Z M 169.988281 240.925781 C 169.988281 241.316406 169.949219 241.703125 169.875 242.085938 C 169.796875 242.472656 169.683594 242.84375 169.535156 243.203125 C 169.386719 243.5625 169.203125 243.90625 168.988281 244.230469 C 168.769531 244.554688 168.523438 244.855469 168.246094 245.132812 C 167.972656 245.410156 167.671875 245.65625 167.347656 245.871094 C 167.023438 246.089844 166.679688 246.273438 166.320312 246.421875 C 165.957031 246.570312 165.585938 246.683594 165.203125 246.761719 C 164.820312 246.835938 164.433594 246.875 164.042969 246.875 C 163.652344 246.875 163.265625 246.835938 162.882812 246.761719 C 162.5 246.683594 162.128906 246.570312 161.769531 246.421875 C 161.40625 246.273438 161.066406 246.089844 160.742188 245.871094 C 160.417969 245.65625 160.117188 245.410156 159.839844 245.132812 C 159.5625 244.855469 159.316406 244.554688 159.101562 244.230469 C 158.882812 243.90625 158.699219 243.5625 158.550781 243.203125 C 158.402344 242.84375 158.289062 242.472656 158.210938 242.085938 C 158.136719 241.703125 158.097656 241.316406 158.097656 240.925781 L 158.097656 205.25 C 158.097656 204.859375 158.136719 204.472656 158.210938 204.089844 C 158.289062 203.707031 158.402344 203.335938 158.550781 202.972656 C 158.699219 202.613281 158.882812 202.269531 159.101562 201.945312 C 159.316406 201.621094 159.5625 201.320312 159.839844 201.042969 C 160.117188 200.769531 160.417969 200.523438 160.742188 200.304688 C 161.066406 200.089844 161.40625 199.90625 161.769531 199.753906 C 162.128906 199.605469 162.5 199.492188 162.882812 199.417969 C 163.265625 199.339844 163.652344 199.300781 164.042969 199.300781 C 164.433594 199.300781 164.820312 199.339844 165.203125 199.417969 C 165.585938 199.492188 165.957031 199.605469 166.320312 199.753906 C 166.679688 199.90625 167.023438 200.089844 167.347656 200.304688 C 167.671875 200.523438 167.972656 200.769531 168.246094 201.042969 C 168.523438 201.320312 168.769531 201.621094 168.988281 201.945312 C 169.203125 202.269531 169.386719 202.613281 169.535156 202.972656 C 169.683594 203.335938 169.796875 203.707031 169.875 204.089844 C 169.949219 204.472656 169.988281 204.859375 169.988281 205.25 Z M 193.769531 240.925781 C 193.769531 241.316406 193.730469 241.703125 193.652344 242.085938 C 193.578125 242.472656 193.464844 242.84375 193.316406 243.203125 C 193.167969 243.5625 192.984375 243.90625 192.765625 244.230469 C 192.550781 244.554688 192.304688 244.855469 192.027344 245.132812 C 191.75 245.410156 191.449219 245.65625 191.125 245.871094 C 190.800781 246.089844 190.457031 246.273438 190.097656 246.421875 C 189.738281 246.570312 189.367188 246.683594 188.984375 246.761719 C 188.601562 246.835938 188.214844 246.875 187.824219 246.875 C 187.433594 246.875 187.046875 246.835938 186.664062 246.761719 C 186.28125 246.683594 185.910156 246.570312 185.546875 246.421875 C 185.1875 246.273438 184.84375 246.089844 184.519531 245.871094 C 184.195312 245.65625 183.894531 245.410156 183.621094 245.132812 C 183.34375 244.855469 183.097656 244.554688 182.878906 244.230469 C 182.664062 243.90625 182.480469 243.5625 182.332031 243.203125 C 182.179688 242.84375 182.070312 242.472656 181.992188 242.085938 C 181.917969 241.703125 181.878906 241.316406 181.878906 240.925781 L 181.878906 205.25 C 181.878906 204.859375 181.917969 204.472656 181.992188 204.089844 C 182.070312 203.707031 182.179688 203.335938 182.332031 202.972656 C 182.480469 202.613281 182.664062 202.269531 182.878906 201.945312 C 183.097656 201.621094 183.34375 201.320312 183.621094 201.042969 C 183.894531 200.769531 184.195312 200.523438 184.519531 200.304688 C 184.84375 200.089844 185.1875 199.90625 185.546875 199.753906 C 185.910156 199.605469 186.28125 199.492188 186.664062 199.417969 C 187.046875 199.339844 187.433594 199.300781 187.824219 199.300781 C 188.214844 199.300781 188.601562 199.339844 188.984375 199.417969 C 189.367188 199.492188 189.738281 199.605469 190.097656 199.753906 C 190.457031 199.90625 190.800781 200.089844 191.125 200.304688 C 191.449219 200.523438 191.75 200.769531 192.027344 201.042969 C 192.304688 201.320312 192.550781 201.621094 192.765625 201.945312 C 192.984375 202.269531 193.167969 202.613281 193.316406 202.972656 C 193.464844 203.335938 193.578125 203.707031 193.652344 204.089844 C 193.730469 204.472656 193.769531 204.859375 193.769531 205.25 Z M 217.546875 240.925781 C 217.546875 241.316406 217.507812 241.703125 217.433594 242.085938 C 217.355469 242.472656 217.246094 242.84375 217.09375 243.203125 C 216.945312 243.5625 216.761719 243.90625 216.546875 244.230469 C 216.328125 244.554688 216.082031 244.855469 215.804688 245.132812 C 215.53125 245.410156 215.230469 245.65625 214.90625 245.871094 C 214.582031 246.089844 214.238281 246.273438 213.878906 246.421875 C 213.515625 246.570312 213.144531 246.683594 212.761719 246.761719 C 212.378906 246.835938 211.992188 246.875 211.601562 246.875 C 211.210938 246.875 210.824219 246.835938 210.441406 246.761719 C 210.058594 246.683594 209.6875 246.570312 209.328125 246.421875 C 208.96875 246.273438 208.625 246.089844 208.300781 245.871094 C 207.976562 245.65625 207.675781 245.410156 207.398438 245.132812 C 207.121094 244.855469 206.875 244.554688 206.660156 244.230469 C 206.441406 243.90625 206.257812 243.5625 206.109375 243.203125 C 205.960938 242.84375 205.847656 242.472656 205.773438 242.085938 C 205.695312 241.703125 205.65625 241.316406 205.65625 240.925781 L 205.65625 205.25 C 205.65625 204.859375 205.695312 204.472656 205.773438 204.089844 C 205.847656 203.707031 205.960938 203.335938 206.109375 202.972656 C 206.257812 202.613281 206.441406 202.269531 206.660156 201.945312 C 206.875 201.621094 207.121094 201.320312 207.398438 201.042969 C 207.675781 200.769531 207.976562 200.523438 208.300781 200.304688 C 208.625 200.089844 208.96875 199.90625 209.328125 199.753906 C 209.6875 199.605469 210.058594 199.492188 210.441406 199.417969 C 210.824219 199.339844 211.210938 199.300781 211.601562 199.300781 C 211.992188 199.300781 212.378906 199.339844 212.761719 199.417969 C 213.144531 199.492188 213.515625 199.605469 213.878906 199.753906 C 214.238281 199.90625 214.582031 200.089844 214.90625 200.304688 C 215.230469 200.523438 215.53125 200.769531 215.804688 201.042969 C 216.082031 201.320312 216.328125 201.621094 216.546875 201.945312 C 216.761719 202.269531 216.945312 202.613281 217.09375 202.972656 C 217.246094 203.335938 217.355469 203.707031 217.433594 204.089844 C 217.507812 204.472656 217.546875 204.859375 217.546875 205.25 Z M 241.328125 240.925781 C 241.328125 241.316406 241.289062 241.703125 241.214844 242.085938 C 241.136719 242.472656 241.023438 242.84375 240.875 243.203125 C 240.726562 243.5625 240.542969 243.90625 240.324219 244.230469 C 240.109375 244.554688 239.863281 244.855469 239.585938 245.132812 C 239.308594 245.410156 239.007812 245.65625 238.683594 245.871094 C 238.359375 246.089844 238.019531 246.273438 237.65625 246.421875 C 237.296875 246.570312 236.925781 246.683594 236.542969 246.761719 C 236.160156 246.835938 235.773438 246.875 235.382812 246.875 C 234.992188 246.875 234.605469 246.835938 234.222656 246.761719 C 233.839844 246.683594 233.46875 246.570312 233.105469 246.421875 C 232.746094 246.273438 232.402344 246.089844 232.078125 245.871094 C 231.753906 245.65625 231.453125 245.410156 231.179688 245.132812 C 230.902344 244.855469 230.65625 244.554688 230.4375 244.230469 C 230.222656 243.90625 230.039062 243.5625 229.890625 243.203125 C 229.742188 242.84375 229.628906 242.472656 229.550781 242.085938 C 229.476562 241.703125 229.4375 241.316406 229.4375 240.925781 L 229.4375 205.25 C 229.4375 204.859375 229.476562 204.472656 229.550781 204.089844 C 229.628906 203.707031 229.742188 203.335938 229.890625 202.972656 C 230.039062 202.613281 230.222656 202.269531 230.4375 201.945312 C 230.65625 201.621094 230.902344 201.320312 231.179688 201.042969 C 231.453125 200.769531 231.753906 200.523438 232.078125 200.304688 C 232.402344 200.089844 232.746094 199.90625 233.105469 199.753906 C 233.46875 199.605469 233.839844 199.492188 234.222656 199.417969 C 234.605469 199.339844 234.992188 199.300781 235.382812 199.300781 C 235.773438 199.300781 236.160156 199.339844 236.542969 199.417969 C 236.925781 199.492188 237.296875 199.605469 237.65625 199.753906 C 238.019531 199.90625 238.359375 200.089844 238.683594 200.304688 C 239.007812 200.523438 239.308594 200.769531 239.585938 201.042969 C 239.863281 201.320312 240.109375 201.621094 240.324219 201.945312 C 240.542969 202.269531 240.726562 202.613281 240.875 202.972656 C 241.023438 203.335938 241.136719 203.707031 241.214844 204.089844 C 241.289062 204.472656 241.328125 204.859375 241.328125 205.25 Z M 241.328125 240.925781 " fill-opacity="1" fill-rule="nonzero"/></g><g clip-path="url(#31fe5c88ba)"><path fill="#000000" d="M 125.757812 163 C 126.144531 163.191406 126.550781 163.339844 126.96875 163.441406 C 127.390625 163.542969 127.816406 163.601562 128.246094 163.609375 C 128.679688 163.621094 129.105469 163.585938 129.53125 163.5 C 129.953125 163.417969 130.363281 163.289062 130.761719 163.117188 C 131.15625 162.945312 131.53125 162.730469 131.878906 162.476562 C 132.230469 162.222656 132.546875 161.933594 132.835938 161.613281 C 133.121094 161.289062 133.371094 160.9375 133.578125 160.558594 C 133.789062 160.183594 133.957031 159.785156 134.082031 159.371094 L 143.238281 128.808594 C 143.355469 128.324219 143.511719 127.855469 143.707031 127.398438 C 143.902344 126.941406 144.136719 126.503906 144.402344 126.089844 C 144.671875 125.671875 144.976562 125.277344 145.308594 124.910156 C 145.644531 124.542969 146.007812 124.207031 146.398438 123.898438 C 146.789062 123.59375 147.203125 123.320312 147.636719 123.085938 C 148.074219 122.847656 148.527344 122.648438 148.996094 122.484375 C 149.464844 122.324219 149.945312 122.203125 150.4375 122.121094 C 150.925781 122.039062 151.417969 122 151.914062 122 L 155.125 122 C 156.046875 122.003906 156.917969 122.21875 157.734375 122.644531 C 158.550781 123.070312 159.230469 123.65625 159.761719 124.40625 C 160.554688 125.511719 161.550781 126.375 162.757812 127 C 163.960938 127.621094 165.242188 127.9375 166.601562 127.945312 L 209.046875 127.945312 C 210.410156 127.941406 211.695312 127.628906 212.90625 127.003906 C 214.117188 126.378906 215.121094 125.515625 215.914062 124.40625 C 216.445312 123.660156 217.117188 123.074219 217.929688 122.652344 C 218.738281 122.226562 219.605469 122.007812 220.519531 122 L 223.699219 122 C 224.214844 121.996094 224.722656 122.035156 225.230469 122.121094 C 225.738281 122.203125 226.234375 122.328125 226.71875 122.496094 C 227.207031 122.664062 227.671875 122.871094 228.125 123.121094 C 228.574219 123.367188 229 123.648438 229.402344 123.96875 C 229.804688 124.289062 230.179688 124.640625 230.519531 125.023438 C 230.863281 125.40625 231.171875 125.8125 231.445312 126.25 C 231.71875 126.683594 231.953125 127.136719 232.152344 127.613281 C 232.347656 128.085938 232.503906 128.574219 232.617188 129.074219 L 241.535156 159.371094 C 241.71875 159.988281 241.996094 160.5625 242.363281 161.089844 C 242.734375 161.617188 243.175781 162.074219 243.695312 162.457031 C 244.210938 162.839844 244.777344 163.128906 245.386719 163.332031 C 246 163.53125 246.628906 163.628906 247.273438 163.625 C 248.265625 163.628906 249.195312 163.390625 250.066406 162.910156 C 250.679688 162.558594 251.21875 162.113281 251.679688 161.578125 C 252.140625 161.039062 252.5 160.441406 252.753906 159.78125 C 253.007812 159.121094 253.144531 158.433594 253.164062 157.726562 C 253.179688 157.019531 253.082031 156.328125 252.859375 155.65625 L 243.941406 125.921875 C 243.664062 124.800781 243.296875 123.710938 242.839844 122.652344 C 242.378906 121.589844 241.835938 120.578125 241.210938 119.605469 C 240.582031 118.636719 239.878906 117.726562 239.097656 116.875 C 238.320312 116.019531 237.472656 115.238281 236.566406 114.527344 C 235.65625 113.816406 234.691406 113.183594 233.679688 112.632812 C 232.664062 112.082031 231.609375 111.617188 230.519531 111.238281 C 229.425781 110.863281 228.3125 110.582031 227.171875 110.390625 C 226.03125 110.199219 224.886719 110.105469 223.730469 110.105469 L 220.519531 110.105469 C 219.597656 110.101562 218.730469 109.886719 217.910156 109.460938 C 217.09375 109.035156 216.417969 108.449219 215.882812 107.699219 C 215.09375 106.59375 214.09375 105.730469 212.890625 105.105469 C 211.683594 104.484375 210.402344 104.167969 209.046875 104.160156 L 166.601562 104.160156 C 165.238281 104.164062 163.949219 104.476562 162.738281 105.101562 C 161.527344 105.726562 160.527344 106.589844 159.734375 107.699219 C 159.203125 108.445312 158.53125 109.03125 157.71875 109.453125 C 156.90625 109.878906 156.042969 110.097656 155.125 110.105469 L 151.914062 110.105469 C 150.769531 110.101562 149.632812 110.195312 148.503906 110.378906 C 147.375 110.5625 146.265625 110.839844 145.183594 111.207031 C 144.097656 111.578125 143.050781 112.03125 142.042969 112.570312 C 141.03125 113.113281 140.074219 113.730469 139.167969 114.429688 C 138.261719 115.128906 137.417969 115.898438 136.636719 116.734375 C 135.855469 117.574219 135.148438 118.46875 134.515625 119.425781 C 133.886719 120.378906 133.335938 121.378906 132.867188 122.425781 C 132.402344 123.472656 132.023438 124.546875 131.734375 125.65625 L 122.816406 155.625 C 122.589844 156.316406 122.488281 157.023438 122.511719 157.75 C 122.53125 158.472656 122.679688 159.171875 122.949219 159.847656 C 123.21875 160.523438 123.59375 161.128906 124.074219 161.671875 C 124.558594 162.210938 125.121094 162.65625 125.757812 163 Z M 125.757812 163 " fill-opacity="1" fill-rule="nonzero"/></g></svg>