<svg xmlns="http://www.w3.org/2000/svg" xmlns:xlink="http://www.w3.org/1999/xlink" width="500" zoomAndPan="magnify" viewBox="0 0 375 374.999991" height="500" preserveAspectRatio="xMidYMid meet" version="1.0"><defs><clipPath id="93ca79d993"><path d="M 125 134 L 250 134 L 250 270.660156 L 125 270.660156 Z M 125 134 " clip-rule="nonzero"/></clipPath><clipPath id="1f1403866b"><path d="M 99.425781 104.160156 L 275.675781 104.160156 L 275.675781 193 L 99.425781 193 Z M 99.425781 104.160156 " clip-rule="nonzero"/></clipPath></defs><g clip-path="url(#93ca79d993)"><path fill="#000000" d="M 249.425781 188.792969 Z M 249.425781 188.792969 L 187.570312 134.101562 L 125.675781 188.816406 L 125.675781 267 C 125.675781 269.019531 127.308594 270.636719 129.332031 270.636719 L 168.011719 270.636719 L 168.011719 236.359375 C 168.011719 234.339844 169.636719 232.707031 171.660156 232.707031 L 203.441406 232.707031 C 205.464844 232.707031 207.085938 234.339844 207.085938 236.359375 L 207.085938 270.636719 L 245.777344 270.636719 C 247.800781 270.636719 249.425781 269.019531 249.425781 267 L 249.425781 188.789062 Z M 125.675781 188.816406 Z M 125.675781 188.816406 " fill-opacity="1" fill-rule="nonzero"/></g><g clip-path="url(#1f1403866b)"><path fill="#000000" d="M 187.210938 104.171875 L 99.425781 181.769531 L 108.671875 192.183594 L 187.570312 122.4375 L 266.445312 192.183594 L 275.675781 181.769531 L 187.910156 104.171875 L 187.570312 104.566406 Z M 187.210938 104.171875 " fill-opacity="1" fill-rule="nonzero"/></g><path fill="#000000" d="M 125.675781 115.34375 L 147.929688 115.34375 L 147.734375 128.5 L 125.675781 148.394531 Z M 125.675781 115.34375 " fill-opacity="1" fill-rule="nonzero"/></svg>