<svg xmlns="http://www.w3.org/2000/svg" xmlns:xlink="http://www.w3.org/1999/xlink" width="500" zoomAndPan="magnify" viewBox="0 0 375 374.999991" height="500" preserveAspectRatio="xMidYMid meet" version="1.0"><defs><g/><clipPath id="4e2249107a"><path d="M 13.945312 43 L 360 43 L 360 333.992188 L 13.945312 333.992188 Z M 13.945312 43 " clip-rule="nonzero"/></clipPath></defs><g clip-path="url(#4e2249107a)"><path fill="#292420" d="M 358.660156 116.160156 C 358.191406 108.003906 361.1875 98.878906 355.761719 91.78125 C 346.253906 89.164062 336.773438 86.519531 327.234375 84.183594 C 326.734375 72.382812 327.667969 60.546875 326.800781 48.777344 C 325.425781 40.746094 315.640625 43.546875 309.960938 43.484375 C 260.761719 45.945312 215.425781 73.75 186.492188 112.824219 C 155.371094 70.480469 104.363281 41.304688 50.949219 43.480469 C 49.890625 44.382812 47.738281 46.1875 46.648438 47.089844 C 45.023438 59.328125 46.554688 71.816406 45.894531 84.148438 C 35.082031 88.507812 19.089844 87.824219 13.945312 100.28125 C 15.972656 105.203125 16.441406 110.527344 16.222656 115.820312 C 15.75 178.28125 16.65625 240.71875 15.78125 303.152344 C 14.96875 307.855469 15.84375 316.171875 22.609375 314.707031 C 44.464844 306.769531 68.003906 303.902344 91.199219 305.242188 C 122.722656 307.703125 155.464844 315.085938 181.371094 333.953125 C 183.898438 333.953125 188.917969 333.953125 191.410156 333.984375 C 205.75 322.988281 223.144531 317.011719 240.328125 312.0625 C 277.152344 301.753906 316.90625 302.71875 353.101562 315.082031 C 360.832031 313.773438 358.742188 305.304688 358.808594 299.695312 C 358.476562 238.539062 358.757812 177.347656 358.660156 116.160156 Z M 29.378906 297.792969 C 29.566406 233.300781 29.347656 168.78125 29.472656 104.296875 C 34.988281 102.332031 40.539062 100.375 46.089844 98.441406 C 45.96875 149.945312 46 201.453125 46.058594 252.957031 C 45.34375 262.328125 57.066406 260.675781 63.179688 261.265625 C 99.660156 262.792969 132.863281 281.324219 159.367188 305.390625 C 118.457031 288.890625 71.875 285.152344 29.378906 297.792969 Z M 207.472656 308.695312 C 227.707031 288.921875 251.03125 271.175781 278.75 263.542969 C 293.03125 258.710938 308.148438 258.25 322.992188 256.847656 C 327.792969 256.253906 326.796875 250.277344 327.136719 246.914062 C 327.105469 197.648438 327.078125 148.390625 327.105469 99.125 C 333.058594 100.929688 339.019531 102.734375 345.003906 104.480469 C 345.84375 168.96875 345.035156 233.492188 345.40625 297.976562 C 300.046875 285.433594 250.503906 289.914062 207.472656 308.695312 Z M 207.472656 308.695312 " fill-opacity="1" fill-rule="nonzero"/></g><g fill="#bf191e" fill-opacity="0.8196"><g transform="translate(106.934125, 167.582708)"><g><path d="M 7.71875 0 C 7.007812 0 6.488281 -0.164062 6.15625 -0.5 C 5.832031 -0.832031 5.671875 -1.351562 5.671875 -2.0625 L 5.671875 -41.53125 C 5.671875 -42.238281 5.832031 -42.757812 6.15625 -43.09375 C 6.488281 -43.425781 7.007812 -43.59375 7.71875 -43.59375 L 19.171875 -43.59375 C 23.867188 -43.59375 27.410156 -42.601562 29.796875 -40.625 C 32.179688 -38.65625 33.375 -35.96875 33.375 -32.5625 C 33.375 -30.53125 32.695312 -28.585938 31.34375 -26.734375 C 30 -24.890625 28.394531 -23.675781 26.53125 -23.09375 L 26.59375 -22.84375 C 27.375 -22.6875 28.4375 -22.222656 29.78125 -21.453125 C 31.132812 -20.679688 32.375 -19.546875 33.5 -18.046875 C 34.625 -16.554688 35.1875 -14.734375 35.1875 -12.578125 C 35.1875 -4.191406 29.828125 0 19.109375 0 Z M 18.6875 -25.21875 C 20.96875 -25.21875 22.832031 -25.835938 24.28125 -27.078125 C 25.738281 -28.328125 26.46875 -29.882812 26.46875 -31.75 C 26.46875 -33.832031 25.832031 -35.367188 24.5625 -36.359375 C 23.300781 -37.359375 21.300781 -37.859375 18.5625 -37.859375 L 12.328125 -37.859375 L 12.328125 -25.21875 Z M 20.546875 -5.734375 C 22.992188 -5.734375 24.898438 -6.363281 26.265625 -7.625 C 27.640625 -8.894531 28.328125 -10.648438 28.328125 -12.890625 C 28.328125 -15.003906 27.578125 -16.628906 26.078125 -17.765625 C 24.585938 -18.910156 22.390625 -19.484375 19.484375 -19.484375 L 12.328125 -19.484375 L 12.328125 -5.734375 Z M 20.546875 -5.734375 "/></g></g></g><g fill="#bf191e" fill-opacity="0.8196"><g transform="translate(143.855098, 167.582708)"><g><path d="M 22.734375 0.4375 C 16.460938 0.4375 11.664062 -1.46875 8.34375 -5.28125 C 5.019531 -9.101562 3.359375 -14.628906 3.359375 -21.859375 C 3.359375 -29.117188 5.019531 -34.625 8.34375 -38.375 C 11.664062 -42.132812 16.460938 -44.015625 22.734375 -44.015625 C 29.078125 -44.015625 33.898438 -42.132812 37.203125 -38.375 C 40.503906 -34.625 42.15625 -29.117188 42.15625 -21.859375 C 42.15625 -14.585938 40.492188 -9.050781 37.171875 -5.25 C 33.847656 -1.457031 29.035156 0.4375 22.734375 0.4375 Z M 22.734375 -5.296875 C 26.796875 -5.296875 29.90625 -6.707031 32.0625 -9.53125 C 34.21875 -12.351562 35.296875 -16.460938 35.296875 -21.859375 C 35.296875 -27.253906 34.226562 -31.332031 32.09375 -34.09375 C 29.957031 -36.851562 26.835938 -38.234375 22.734375 -38.234375 C 18.617188 -38.234375 15.503906 -36.851562 13.390625 -34.09375 C 11.273438 -31.332031 10.21875 -27.253906 10.21875 -21.859375 C 10.21875 -16.460938 11.285156 -12.351562 13.421875 -9.53125 C 15.554688 -6.707031 18.660156 -5.296875 22.734375 -5.296875 Z M 22.734375 -5.296875 "/></g></g></g><g fill="#bf191e" fill-opacity="0.8196"><g transform="translate(189.368144, 167.582708)"><g><path d="M 22.734375 0.4375 C 16.460938 0.4375 11.664062 -1.46875 8.34375 -5.28125 C 5.019531 -9.101562 3.359375 -14.628906 3.359375 -21.859375 C 3.359375 -29.117188 5.019531 -34.625 8.34375 -38.375 C 11.664062 -42.132812 16.460938 -44.015625 22.734375 -44.015625 C 29.078125 -44.015625 33.898438 -42.132812 37.203125 -38.375 C 40.503906 -34.625 42.15625 -29.117188 42.15625 -21.859375 C 42.15625 -14.585938 40.492188 -9.050781 37.171875 -5.25 C 33.847656 -1.457031 29.035156 0.4375 22.734375 0.4375 Z M 22.734375 -5.296875 C 26.796875 -5.296875 29.90625 -6.707031 32.0625 -9.53125 C 34.21875 -12.351562 35.296875 -16.460938 35.296875 -21.859375 C 35.296875 -27.253906 34.226562 -31.332031 32.09375 -34.09375 C 29.957031 -36.851562 26.835938 -38.234375 22.734375 -38.234375 C 18.617188 -38.234375 15.503906 -36.851562 13.390625 -34.09375 C 11.273438 -31.332031 10.21875 -27.253906 10.21875 -21.859375 C 10.21875 -16.460938 11.285156 -12.351562 13.421875 -9.53125 C 15.554688 -6.707031 18.660156 -5.296875 22.734375 -5.296875 Z M 22.734375 -5.296875 "/></g></g></g><g fill="#bf191e" fill-opacity="0.8196"><g transform="translate(234.88119, 167.582708)"><g><path d="M 8.40625 0.125 C 6.5 0.125 5.546875 -0.394531 5.546875 -1.4375 L 5.546875 -42.15625 C 5.546875 -43.1875 6.5 -43.703125 8.40625 -43.703125 L 9.34375 -43.703125 C 11.25 -43.703125 12.203125 -43.1875 12.203125 -42.15625 L 12.203125 -23.78125 L 12.453125 -23.78125 L 26.46875 -42.78125 C 26.914062 -43.394531 28.078125 -43.703125 29.953125 -43.703125 L 31.25 -43.703125 C 32.082031 -43.703125 32.71875 -43.617188 33.15625 -43.453125 C 33.59375 -43.296875 33.8125 -43.09375 33.8125 -42.84375 C 33.8125 -42.507812 33.625 -42.09375 33.25 -41.59375 L 18.6875 -22.484375 L 36.046875 -1.875 C 36.378906 -1.375 36.546875 -1 36.546875 -0.75 C 36.546875 -0.457031 36.316406 -0.238281 35.859375 -0.09375 C 35.410156 0.0507812 34.664062 0.125 33.625 0.125 L 32.0625 0.125 C 31.15625 0.125 30.410156 0.0625 29.828125 -0.0625 C 29.242188 -0.1875 28.804688 -0.4375 28.515625 -0.8125 L 12.453125 -20.546875 L 12.203125 -20.484375 L 12.203125 -1.4375 C 12.203125 -0.394531 11.25 0.125 9.34375 0.125 Z M 8.40625 0.125 "/></g></g></g><g fill="#fe7554" fill-opacity="1"><g transform="translate(103.057168, 167.9219)"><g><path d="M 7.71875 0 C 7.007812 0 6.488281 -0.164062 6.15625 -0.5 C 5.832031 -0.832031 5.671875 -1.351562 5.671875 -2.0625 L 5.671875 -41.53125 C 5.671875 -42.238281 5.832031 -42.757812 6.15625 -43.09375 C 6.488281 -43.425781 7.007812 -43.59375 7.71875 -43.59375 L 19.171875 -43.59375 C 23.867188 -43.59375 27.410156 -42.601562 29.796875 -40.625 C 32.179688 -38.65625 33.375 -35.96875 33.375 -32.5625 C 33.375 -30.53125 32.695312 -28.585938 31.34375 -26.734375 C 30 -24.890625 28.394531 -23.675781 26.53125 -23.09375 L 26.59375 -22.84375 C 27.375 -22.6875 28.4375 -22.222656 29.78125 -21.453125 C 31.132812 -20.679688 32.375 -19.546875 33.5 -18.046875 C 34.625 -16.554688 35.1875 -14.734375 35.1875 -12.578125 C 35.1875 -4.191406 29.828125 0 19.109375 0 Z M 18.6875 -25.21875 C 20.96875 -25.21875 22.832031 -25.835938 24.28125 -27.078125 C 25.738281 -28.328125 26.46875 -29.882812 26.46875 -31.75 C 26.46875 -33.832031 25.832031 -35.367188 24.5625 -36.359375 C 23.300781 -37.359375 21.300781 -37.859375 18.5625 -37.859375 L 12.328125 -37.859375 L 12.328125 -25.21875 Z M 20.546875 -5.734375 C 22.992188 -5.734375 24.898438 -6.363281 26.265625 -7.625 C 27.640625 -8.894531 28.328125 -10.648438 28.328125 -12.890625 C 28.328125 -15.003906 27.578125 -16.628906 26.078125 -17.765625 C 24.585938 -18.910156 22.390625 -19.484375 19.484375 -19.484375 L 12.328125 -19.484375 L 12.328125 -5.734375 Z M 20.546875 -5.734375 "/></g></g></g><g fill="#fe7554" fill-opacity="1"><g transform="translate(139.978141, 167.9219)"><g><path d="M 22.734375 0.4375 C 16.460938 0.4375 11.664062 -1.46875 8.34375 -5.28125 C 5.019531 -9.101562 3.359375 -14.628906 3.359375 -21.859375 C 3.359375 -29.117188 5.019531 -34.625 8.34375 -38.375 C 11.664062 -42.132812 16.460938 -44.015625 22.734375 -44.015625 C 29.078125 -44.015625 33.898438 -42.132812 37.203125 -38.375 C 40.503906 -34.625 42.15625 -29.117188 42.15625 -21.859375 C 42.15625 -14.585938 40.492188 -9.050781 37.171875 -5.25 C 33.847656 -1.457031 29.035156 0.4375 22.734375 0.4375 Z M 22.734375 -5.296875 C 26.796875 -5.296875 29.90625 -6.707031 32.0625 -9.53125 C 34.21875 -12.351562 35.296875 -16.460938 35.296875 -21.859375 C 35.296875 -27.253906 34.226562 -31.332031 32.09375 -34.09375 C 29.957031 -36.851562 26.835938 -38.234375 22.734375 -38.234375 C 18.617188 -38.234375 15.503906 -36.851562 13.390625 -34.09375 C 11.273438 -31.332031 10.21875 -27.253906 10.21875 -21.859375 C 10.21875 -16.460938 11.285156 -12.351562 13.421875 -9.53125 C 15.554688 -6.707031 18.660156 -5.296875 22.734375 -5.296875 Z M 22.734375 -5.296875 "/></g></g></g><g fill="#fe7554" fill-opacity="1"><g transform="translate(185.491187, 167.9219)"><g><path d="M 22.734375 0.4375 C 16.460938 0.4375 11.664062 -1.46875 8.34375 -5.28125 C 5.019531 -9.101562 3.359375 -14.628906 3.359375 -21.859375 C 3.359375 -29.117188 5.019531 -34.625 8.34375 -38.375 C 11.664062 -42.132812 16.460938 -44.015625 22.734375 -44.015625 C 29.078125 -44.015625 33.898438 -42.132812 37.203125 -38.375 C 40.503906 -34.625 42.15625 -29.117188 42.15625 -21.859375 C 42.15625 -14.585938 40.492188 -9.050781 37.171875 -5.25 C 33.847656 -1.457031 29.035156 0.4375 22.734375 0.4375 Z M 22.734375 -5.296875 C 26.796875 -5.296875 29.90625 -6.707031 32.0625 -9.53125 C 34.21875 -12.351562 35.296875 -16.460938 35.296875 -21.859375 C 35.296875 -27.253906 34.226562 -31.332031 32.09375 -34.09375 C 29.957031 -36.851562 26.835938 -38.234375 22.734375 -38.234375 C 18.617188 -38.234375 15.503906 -36.851562 13.390625 -34.09375 C 11.273438 -31.332031 10.21875 -27.253906 10.21875 -21.859375 C 10.21875 -16.460938 11.285156 -12.351562 13.421875 -9.53125 C 15.554688 -6.707031 18.660156 -5.296875 22.734375 -5.296875 Z M 22.734375 -5.296875 "/></g></g></g><g fill="#fe7554" fill-opacity="1"><g transform="translate(231.004233, 167.9219)"><g><path d="M 8.40625 0.125 C 6.5 0.125 5.546875 -0.394531 5.546875 -1.4375 L 5.546875 -42.15625 C 5.546875 -43.1875 6.5 -43.703125 8.40625 -43.703125 L 9.34375 -43.703125 C 11.25 -43.703125 12.203125 -43.1875 12.203125 -42.15625 L 12.203125 -23.78125 L 12.453125 -23.78125 L 26.46875 -42.78125 C 26.914062 -43.394531 28.078125 -43.703125 29.953125 -43.703125 L 31.25 -43.703125 C 32.082031 -43.703125 32.71875 -43.617188 33.15625 -43.453125 C 33.59375 -43.296875 33.8125 -43.09375 33.8125 -42.84375 C 33.8125 -42.507812 33.625 -42.09375 33.25 -41.59375 L 18.6875 -22.484375 L 36.046875 -1.875 C 36.378906 -1.375 36.546875 -1 36.546875 -0.75 C 36.546875 -0.457031 36.316406 -0.238281 35.859375 -0.09375 C 35.410156 0.0507812 34.664062 0.125 33.625 0.125 L 32.0625 0.125 C 31.15625 0.125 30.410156 0.0625 29.828125 -0.0625 C 29.242188 -0.1875 28.804688 -0.4375 28.515625 -0.8125 L 12.453125 -20.546875 L 12.203125 -20.484375 L 12.203125 -1.4375 C 12.203125 -0.394531 11.25 0.125 9.34375 0.125 Z M 8.40625 0.125 "/></g></g></g><g fill="#aabbf3" fill-opacity="1"><g transform="translate(87.63179, 229.856196)"><g><path d="M 7.71875 0 C 7.007812 0 6.488281 -0.164062 6.15625 -0.5 C 5.820312 -0.832031 5.65625 -1.347656 5.65625 -2.046875 L 5.65625 -41.515625 C 5.65625 -42.210938 5.820312 -42.726562 6.15625 -43.0625 C 6.488281 -43.394531 7.007812 -43.5625 7.71875 -43.5625 L 19.171875 -43.5625 C 23.859375 -43.5625 27.394531 -42.578125 29.78125 -40.609375 C 32.164062 -38.640625 33.359375 -35.953125 33.359375 -32.546875 C 33.359375 -30.515625 32.679688 -28.570312 31.328125 -26.71875 C 29.984375 -24.875 28.378906 -23.664062 26.515625 -23.09375 L 26.578125 -22.84375 C 27.359375 -22.675781 28.421875 -22.207031 29.765625 -21.4375 C 31.117188 -20.664062 32.351562 -19.535156 33.46875 -18.046875 C 34.59375 -16.554688 35.15625 -14.734375 35.15625 -12.578125 C 35.15625 -4.191406 29.804688 0 19.109375 0 Z M 18.671875 -25.203125 C 20.953125 -25.203125 22.816406 -25.820312 24.265625 -27.0625 C 25.722656 -28.3125 26.453125 -29.867188 26.453125 -31.734375 C 26.453125 -33.804688 25.816406 -35.34375 24.546875 -36.34375 C 23.285156 -37.34375 21.285156 -37.84375 18.546875 -37.84375 L 12.328125 -37.84375 L 12.328125 -25.203125 Z M 20.53125 -5.71875 C 22.976562 -5.71875 24.882812 -6.347656 26.25 -7.609375 C 27.625 -8.878906 28.3125 -10.632812 28.3125 -12.875 C 28.3125 -15 27.5625 -16.628906 26.0625 -17.765625 C 24.570312 -18.910156 22.378906 -19.484375 19.484375 -19.484375 L 12.328125 -19.484375 L 12.328125 -5.71875 Z M 20.53125 -5.71875 "/></g></g></g><g fill="#aabbf3" fill-opacity="1"><g transform="translate(124.502385, 229.856196)"><g><path d="M 22.71875 0.4375 C 16.445312 0.4375 11.648438 -1.46875 8.328125 -5.28125 C 5.015625 -9.101562 3.359375 -14.625 3.359375 -21.84375 C 3.359375 -29.101562 5.015625 -34.609375 8.328125 -38.359375 C 11.648438 -42.117188 16.445312 -44 22.71875 -44 C 29.0625 -44 33.878906 -42.117188 37.171875 -38.359375 C 40.472656 -34.609375 42.125 -29.101562 42.125 -21.84375 C 42.125 -14.582031 40.460938 -9.050781 37.140625 -5.25 C 33.828125 -1.457031 29.019531 0.4375 22.71875 0.4375 Z M 22.71875 -5.296875 C 26.78125 -5.296875 29.890625 -6.703125 32.046875 -9.515625 C 34.203125 -12.335938 35.28125 -16.445312 35.28125 -21.84375 C 35.28125 -27.238281 34.210938 -31.316406 32.078125 -34.078125 C 29.941406 -36.835938 26.820312 -38.21875 22.71875 -38.21875 C 18.601562 -38.21875 15.488281 -36.835938 13.375 -34.078125 C 11.257812 -31.316406 10.203125 -27.238281 10.203125 -21.84375 C 10.203125 -16.445312 11.269531 -12.335938 13.40625 -9.515625 C 15.539062 -6.703125 18.644531 -5.296875 22.71875 -5.296875 Z M 22.71875 -5.296875 "/></g></g></g><g fill="#aabbf3" fill-opacity="1"><g transform="translate(169.95329, 229.856196)"><g><path d="M 22.71875 0.4375 C 16.445312 0.4375 11.648438 -1.46875 8.328125 -5.28125 C 5.015625 -9.101562 3.359375 -14.625 3.359375 -21.84375 C 3.359375 -29.101562 5.015625 -34.609375 8.328125 -38.359375 C 11.648438 -42.117188 16.445312 -44 22.71875 -44 C 29.0625 -44 33.878906 -42.117188 37.171875 -38.359375 C 40.472656 -34.609375 42.125 -29.101562 42.125 -21.84375 C 42.125 -14.582031 40.460938 -9.050781 37.140625 -5.25 C 33.828125 -1.457031 29.019531 0.4375 22.71875 0.4375 Z M 22.71875 -5.296875 C 26.78125 -5.296875 29.890625 -6.703125 32.046875 -9.515625 C 34.203125 -12.335938 35.28125 -16.445312 35.28125 -21.84375 C 35.28125 -27.238281 34.210938 -31.316406 32.078125 -34.078125 C 29.941406 -36.835938 26.820312 -38.21875 22.71875 -38.21875 C 18.601562 -38.21875 15.488281 -36.835938 13.375 -34.078125 C 11.257812 -31.316406 10.203125 -27.238281 10.203125 -21.84375 C 10.203125 -16.445312 11.269531 -12.335938 13.40625 -9.515625 C 15.539062 -6.703125 18.644531 -5.296875 22.71875 -5.296875 Z M 22.71875 -5.296875 "/></g></g></g><g fill="#aabbf3" fill-opacity="1"><g transform="translate(215.404195, 229.856196)"><g><path d="M 8.40625 0.125 C 6.488281 0.125 5.53125 -0.394531 5.53125 -1.4375 L 5.53125 -42.125 C 5.53125 -43.164062 6.488281 -43.6875 8.40625 -43.6875 L 9.328125 -43.6875 C 11.242188 -43.6875 12.203125 -43.164062 12.203125 -42.125 L 12.203125 -23.78125 L 12.453125 -23.78125 L 26.453125 -42.75 C 26.910156 -43.375 28.070312 -43.6875 29.9375 -43.6875 L 31.234375 -43.6875 C 32.066406 -43.6875 32.703125 -43.601562 33.140625 -43.4375 C 33.578125 -43.269531 33.796875 -43.0625 33.796875 -42.8125 C 33.796875 -42.476562 33.609375 -42.066406 33.234375 -41.578125 L 18.671875 -22.46875 L 36.03125 -1.859375 C 36.363281 -1.367188 36.53125 -1 36.53125 -0.75 C 36.53125 -0.457031 36.300781 -0.238281 35.84375 -0.09375 C 35.382812 0.0507812 34.640625 0.125 33.609375 0.125 L 32.046875 0.125 C 31.140625 0.125 30.394531 0.0625 29.8125 -0.0625 C 29.226562 -0.1875 28.789062 -0.4375 28.5 -0.8125 L 12.453125 -20.53125 L 12.203125 -20.46875 L 12.203125 -1.4375 C 12.203125 -0.394531 11.242188 0.125 9.328125 0.125 Z M 8.40625 0.125 "/></g></g></g><g fill="#aabbf3" fill-opacity="1"><g transform="translate(251.217784, 229.856196)"><g><path d="M 15.4375 0.4375 C 12.820312 0.4375 10.4375 0.132812 8.28125 -0.46875 C 6.125 -1.070312 4.484375 -1.785156 3.359375 -2.609375 C 2.484375 -3.234375 2.046875 -3.835938 2.046875 -4.421875 C 2.046875 -5.046875 2.378906 -5.863281 3.046875 -6.875 C 3.710938 -7.894531 4.253906 -8.40625 4.671875 -8.40625 C 4.960938 -8.40625 5.4375 -8.175781 6.09375 -7.71875 C 7.46875 -7.007812 8.828125 -6.425781 10.171875 -5.96875 C 11.523438 -5.519531 13.113281 -5.296875 14.9375 -5.296875 C 17.09375 -5.296875 18.882812 -5.863281 20.3125 -7 C 21.75 -8.144531 22.46875 -9.734375 22.46875 -11.765625 C 22.46875 -13.085938 22.113281 -14.195312 21.40625 -15.09375 C 20.695312 -15.988281 19.8125 -16.710938 18.75 -17.265625 C 17.695312 -17.828125 16.238281 -18.503906 14.375 -19.296875 L 13 -19.859375 C 10.84375 -20.722656 9.078125 -21.59375 7.703125 -22.46875 C 6.335938 -23.34375 5.1875 -24.554688 4.25 -26.109375 C 3.320312 -27.660156 2.859375 -29.679688 2.859375 -32.171875 C 2.859375 -34.578125 3.46875 -36.671875 4.6875 -38.453125 C 5.914062 -40.242188 7.585938 -41.613281 9.703125 -42.5625 C 11.816406 -43.519531 14.222656 -44 16.921875 -44 C 18.546875 -44 20.21875 -43.789062 21.9375 -43.375 C 23.65625 -42.957031 25.015625 -42.421875 26.015625 -41.765625 C 26.890625 -41.222656 27.328125 -40.640625 27.328125 -40.015625 C 27.328125 -39.429688 27.023438 -38.628906 26.421875 -37.609375 C 25.816406 -36.597656 25.304688 -36.09375 24.890625 -36.09375 C 24.679688 -36.09375 24.082031 -36.34375 23.09375 -36.84375 C 21.175781 -37.757812 19.179688 -38.21875 17.109375 -38.21875 C 14.785156 -38.21875 12.96875 -37.675781 11.65625 -36.59375 C 10.351562 -35.507812 9.703125 -34.054688 9.703125 -32.234375 C 9.703125 -30.910156 10.046875 -29.832031 10.734375 -29 C 11.421875 -28.164062 12.238281 -27.519531 13.1875 -27.0625 C 14.144531 -26.613281 15.640625 -25.992188 17.671875 -25.203125 C 20.117188 -24.253906 22.117188 -23.332031 23.671875 -22.4375 C 25.234375 -21.539062 26.5625 -20.253906 27.65625 -18.578125 C 28.757812 -16.898438 29.3125 -14.753906 29.3125 -12.140625 C 29.3125 -8.109375 28.023438 -5.003906 25.453125 -2.828125 C 22.878906 -0.648438 19.539062 0.4375 15.4375 0.4375 Z M 15.4375 0.4375 "/></g></g></g></svg>