<svg xmlns="http://www.w3.org/2000/svg" xmlns:xlink="http://www.w3.org/1999/xlink" width="500" zoomAndPan="magnify" viewBox="0 0 375 374.999991" height="500" preserveAspectRatio="xMidYMid meet" version="1.0"><defs><clipPath id="b09bfa7aac"><path d="M 153 104.160156 L 222 104.160156 L 222 186 L 153 186 Z M 153 104.160156 " clip-rule="nonzero"/></clipPath><clipPath id="dbed140f60"><path d="M 124.160156 247 L 125 247 L 125 248 L 124.160156 248 Z M 124.160156 247 " clip-rule="nonzero"/></clipPath><clipPath id="013f51ff79"><path d="M 250 247 L 250.910156 247 L 250.910156 249 L 250 249 Z M 250 247 " clip-rule="nonzero"/></clipPath><clipPath id="a9b7318262"><path d="M 124.160156 188 L 250.910156 188 L 250.910156 270.660156 L 124.160156 270.660156 Z M 124.160156 188 " clip-rule="nonzero"/></clipPath></defs><g clip-path="url(#b09bfa7aac)"><path fill="#000000" d="M 187.535156 185.589844 C 206.066406 185.589844 221.085938 167.375 221.085938 144.90625 C 221.085938 122.4375 216.15625 104.226562 187.535156 104.226562 C 158.917969 104.226562 153.984375 122.4375 153.984375 144.90625 C 153.984375 167.375 169.007812 185.589844 187.535156 185.589844 Z M 187.535156 185.589844 " fill-opacity="1" fill-rule="nonzero"/></g><g clip-path="url(#dbed140f60)"><path fill="#000000" d="M 124.164062 247.707031 C 124.160156 246.335938 124.15625 247.320312 124.164062 247.707031 Z M 124.164062 247.707031 " fill-opacity="1" fill-rule="nonzero"/></g><g clip-path="url(#013f51ff79)"><path fill="#000000" d="M 250.902344 248.777344 C 250.921875 248.402344 250.90625 246.171875 250.902344 248.777344 Z M 250.902344 248.777344 " fill-opacity="1" fill-rule="nonzero"/></g><g clip-path="url(#a9b7318262)"><path fill="#000000" d="M 250.835938 246.066406 C 250.214844 206.925781 245.09375 195.777344 205.910156 188.710938 C 205.910156 188.710938 200.394531 195.730469 187.539062 195.730469 C 174.683594 195.730469 169.164062 188.710938 169.164062 188.710938 C 130.410156 195.695312 124.976562 206.683594 124.265625 244.792969 C 124.207031 247.90625 124.179688 248.066406 124.167969 247.707031 C 124.171875 248.382812 124.171875 249.636719 124.171875 251.820312 C 124.171875 251.820312 133.5 270.59375 187.539062 270.59375 C 241.578125 270.59375 250.902344 251.820312 250.902344 251.820312 C 250.902344 250.417969 250.90625 249.441406 250.90625 248.777344 C 250.894531 249 250.875 248.566406 250.835938 246.0625 Z M 250.835938 246.066406 " fill-opacity="1" fill-rule="nonzero"/></g></svg>