<svg xmlns="http://www.w3.org/2000/svg" xmlns:xlink="http://www.w3.org/1999/xlink" width="500" zoomAndPan="magnify" viewBox="0 0 375 374.999991" height="500" preserveAspectRatio="xMidYMid meet" version="1.0"><defs><clipPath id="d45498e9f2"><path d="M 48.796875 48.796875 L 326.203125 48.796875 L 326.203125 326.203125 L 48.796875 326.203125 Z M 48.796875 48.796875 " clip-rule="nonzero"/></clipPath><clipPath id="4b179ab932"><path d="M 187.5 48.796875 C 110.898438 48.796875 48.796875 110.898438 48.796875 187.5 C 48.796875 264.101562 110.898438 326.203125 187.5 326.203125 C 264.101562 326.203125 326.203125 264.101562 326.203125 187.5 C 326.203125 110.898438 264.101562 48.796875 187.5 48.796875 " clip-rule="nonzero"/></clipPath><clipPath id="f7e06a27bc"><path d="M 104.160156 104.160156 L 270 104.160156 L 270 270 L 104.160156 270 Z M 104.160156 104.160156 " clip-rule="nonzero"/></clipPath></defs><g clip-path="url(#d45498e9f2)"><g clip-path="url(#4b179ab932)"><path fill="#000000" d="M 48.796875 48.796875 L 326.203125 48.796875 L 326.203125 326.203125 L 48.796875 326.203125 Z M 48.796875 48.796875 " fill-opacity="1" fill-rule="nonzero"/></g></g><g clip-path="url(#f7e06a27bc)"><path fill="#ffffff" d="M 211.179688 225.914062 L 251.957031 266.679688 C 255.996094 270.714844 262.554688 270.714844 266.589844 266.675781 C 270.628906 262.636719 270.625 256.082031 266.589844 252.042969 L 225.835938 211.304688 C 234.035156 200.152344 238.878906 186.382812 238.878906 171.488281 C 238.878906 134.328125 208.710938 104.160156 171.550781 104.160156 C 134.390625 104.160156 104.222656 134.328125 104.222656 171.488281 C 104.222656 208.648438 134.390625 238.816406 171.550781 238.816406 C 186.359375 238.816406 200.058594 234.027344 211.179688 225.914062 Z M 171.550781 124.855469 C 197.289062 124.855469 218.1875 145.75 218.1875 171.488281 C 218.1875 197.226562 197.289062 218.125 171.550781 218.125 C 145.8125 218.125 124.914062 197.226562 124.914062 171.488281 C 124.914062 145.75 145.8125 124.855469 171.550781 124.855469 Z M 171.550781 124.855469 " fill-opacity="1" fill-rule="evenodd"/></g></svg>