<svg xmlns="http://www.w3.org/2000/svg" xmlns:xlink="http://www.w3.org/1999/xlink" width="500" zoomAndPan="magnify" viewBox="0 0 375 374.999991" height="500" preserveAspectRatio="xMidYMid meet" version="1.0"><defs><clipPath id="df4b81c902"><path d="M 48.796875 48.796875 L 326.203125 48.796875 L 326.203125 326.203125 L 48.796875 326.203125 Z M 48.796875 48.796875 " clip-rule="nonzero"/></clipPath><clipPath id="159a0a7dd4"><path d="M 187.5 48.796875 C 110.898438 48.796875 48.796875 110.898438 48.796875 187.5 C 48.796875 264.101562 110.898438 326.203125 187.5 326.203125 C 264.101562 326.203125 326.203125 264.101562 326.203125 187.5 C 326.203125 110.898438 264.101562 48.796875 187.5 48.796875 " clip-rule="nonzero"/></clipPath><clipPath id="397b81cc43"><path d="M 104.160156 104.160156 L 270.542969 104.160156 L 270.542969 270.660156 L 104.160156 270.660156 Z M 104.160156 104.160156 " clip-rule="nonzero"/></clipPath></defs><g clip-path="url(#df4b81c902)"><g clip-path="url(#159a0a7dd4)"><path fill="#000000" d="M 48.796875 48.796875 L 326.203125 48.796875 L 326.203125 326.203125 L 48.796875 326.203125 Z M 48.796875 48.796875 " fill-opacity="1" fill-rule="nonzero"/></g></g><g clip-path="url(#397b81cc43)"><path fill="#ffffff" d="M 186.832031 155.746094 C 204.144531 155.421875 218.421875 169.199219 218.746094 186.507812 C 218.746094 186.820312 218.746094 187.113281 218.746094 187.425781 C 218.9375 204.734375 205.074219 218.925781 187.765625 219.117188 C 170.457031 219.308594 156.265625 205.445312 156.074219 188.132812 C 156.074219 187.898438 156.074219 187.660156 156.074219 187.425781 C 155.878906 170.203125 169.613281 156.058594 186.832031 155.746094 Z M 190.1875 104.234375 C 185.519531 104.070312 180.832031 104.308594 176.207031 104.929688 C 174.566406 105.148438 173.21875 106.304688 172.730469 107.871094 L 168.121094 122.886719 C 167.722656 124.160156 166.746094 125.179688 165.488281 125.621094 C 163.316406 126.40625 161.1875 127.277344 159.101562 128.269531 C 157.890625 128.859375 156.472656 128.832031 155.289062 128.195312 L 141.425781 120.832031 C 139.960938 120.066406 138.1875 120.210938 136.886719 121.21875 C 130.945312 125.726562 125.652344 131.03125 121.128906 136.960938 C 120.125 138.277344 119.976562 140.035156 120.746094 141.5 L 128.121094 155.378906 C 128.757812 156.546875 128.816406 157.964844 128.269531 159.175781 C 127.261719 161.261719 126.375 163.390625 125.609375 165.5625 C 125.164062 166.832031 124.144531 167.808594 122.859375 168.195312 L 107.855469 172.820312 C 106.273438 173.292969 105.121094 174.652344 104.914062 176.28125 C 103.910156 183.683594 103.910156 191.164062 104.914062 198.570312 C 105.121094 200.195312 106.273438 201.554688 107.855469 202.027344 L 122.859375 206.65625 C 124.144531 207.039062 125.164062 208.015625 125.609375 209.285156 C 126.375 211.460938 127.261719 213.589844 128.269531 215.671875 C 128.816406 216.882812 128.757812 218.304688 128.121094 219.472656 L 120.746094 233.351562 C 119.976562 234.800781 120.125 236.574219 121.128906 237.890625 C 125.652344 243.816406 130.945312 249.109375 136.886719 253.632812 C 138.1875 254.636719 139.960938 254.769531 141.425781 254.015625 L 155.289062 246.65625 C 156.472656 246.019531 157.890625 245.988281 159.101562 246.566406 C 161.1875 247.554688 163.316406 248.441406 165.488281 249.210938 C 166.746094 249.65625 167.722656 250.675781 168.121094 251.945312 L 172.730469 266.964844 C 173.21875 268.546875 174.566406 269.699219 176.207031 269.90625 C 183.597656 270.910156 191.089844 270.910156 198.480469 269.90625 C 200.105469 269.699219 201.46875 268.546875 201.953125 266.964844 L 206.566406 251.945312 C 206.964844 250.675781 207.941406 249.65625 209.199219 249.210938 C 211.371094 248.441406 213.515625 247.554688 215.582031 246.566406 C 216.796875 245.988281 218.199219 246.019531 219.382812 246.65625 L 233.261719 254.015625 C 234.726562 254.769531 236.5 254.636719 237.800781 253.632812 C 243.742188 249.109375 249.035156 243.816406 253.558594 237.890625 C 254.5625 236.574219 254.710938 234.800781 253.941406 233.351562 L 246.582031 219.472656 C 245.929688 218.304688 245.886719 216.882812 246.433594 215.671875 C 247.421875 213.589844 248.308594 211.460938 249.078125 209.285156 C 249.523438 208.015625 250.542969 207.039062 251.828125 206.65625 L 266.847656 202.027344 C 268.414062 201.542969 269.566406 200.195312 269.789062 198.570312 C 270.777344 191.164062 270.777344 183.683594 269.789062 176.28125 C 269.566406 174.652344 268.414062 173.292969 266.847656 172.820312 L 251.828125 168.195312 C 250.542969 167.808594 249.523438 166.832031 249.078125 165.5625 C 248.308594 163.390625 247.421875 161.261719 246.433594 159.175781 C 245.886719 157.964844 245.929688 156.546875 246.582031 155.378906 L 253.941406 141.5 C 254.710938 140.035156 254.5625 138.277344 253.558594 136.960938 C 249.035156 131.03125 243.742188 125.726562 237.800781 121.21875 C 236.5 120.210938 234.726562 120.066406 233.261719 120.832031 L 219.382812 128.195312 C 218.199219 128.832031 216.796875 128.859375 215.582031 128.285156 C 213.515625 127.292969 211.371094 126.40625 209.199219 125.636719 C 207.941406 125.195312 206.964844 124.175781 206.566406 122.886719 L 201.953125 107.886719 C 201.46875 106.304688 200.105469 105.148438 198.480469 104.929688 C 195.730469 104.558594 192.96875 104.324219 190.1875 104.234375 " fill-opacity="1" fill-rule="nonzero"/></g></svg>